<svg xmlns="http://www.w3.org/2000/svg" viewBox="0 0 32 32" width="32" height="32">
  <!-- Organic blob shape with red outline -->
  <path d="M16 2
    C20 2.2, 25 4, 28 8
    C30.5 11.5, 31 15, 30 19
    C29 23, 26 27, 22 29
    C18.5 30.8, 14 30.5, 10 29
    C6 27, 3 23, 2.2 18.5
    C1.3 14, 2 10, 4.5 7
    C7.5 3.5, 12 1.8, 16 2Z"
    fill="white" stroke="#e53e3e" stroke-width="2" stroke-linejoin="round"/>
  <!-- Small red heart, centered -->
  <path d="M16 20
    C13 18, 11.5 15.8, 11.5 14
    C11.5 12.2, 13 11.5, 14.5 12
    C15.1 12.3, 15.6 12.7, 16 13.3
    C16.4 12.7, 16.9 12.3, 17.5 12
    C19 11.5, 20.5 12.2, 20.5 14
    C20.5 15.8, 19 18, 16 20Z"
    fill="#e53e3e"/>
</svg>
